<svg width="600" height="181" viewBox="0 0 600 181" fill="none" xmlns="http://www.w3.org/2000/svg">
<path d="M227.772 141.401C262.639 167.101 313.176 180.812 356.688 180.812C417.699 180.812 472.624 158.247 514.177 120.716C517.442 117.764 514.517 113.742 510.599 116.041C465.755 142.132 410.308 157.829 353.032 157.829C314.404 157.829 271.91 149.837 232.839 133.252C226.936 130.745 222 137.117 227.772 141.401Z" fill="#0080FF"/>
<path d="M213.276 124.816C217.716 119.122 242.737 122.126 253.968 123.458C257.389 123.876 257.911 120.898 254.83 118.757C234.902 104.732 202.203 108.78 198.389 113.481C194.576 118.208 199.382 150.986 218.108 166.63C220.981 169.033 223.724 167.753 222.444 164.567C218.239 154.068 208.81 130.536 213.276 124.816Z" fill="#0080FF"/>
<path d="M186.819 19.7449V6.11152C186.819 4.04822 188.386 2.66399 190.267 2.66399H251.304C253.263 2.66399 254.83 4.07435 254.83 6.11152V17.7861C254.804 19.7449 253.158 22.3044 250.233 26.3527L218.604 71.51C230.357 71.2227 242.763 72.9726 253.419 78.9797C255.822 80.3378 256.475 82.3227 256.658 84.2815V98.8291C256.658 100.814 254.464 103.138 252.166 101.937C233.387 92.0907 208.445 91.0199 187.681 102.042C185.566 103.191 183.346 100.892 183.346 98.9074V85.0912C183.346 82.8712 183.372 79.0841 185.592 75.715L222.235 23.1663H190.345C188.386 23.1663 186.819 21.7821 186.819 19.7449Z" fill="white"/>
<path d="M394.536 104.81H375.966C374.19 104.679 372.78 103.347 372.649 101.65V6.3466C372.649 4.44001 374.243 2.92518 376.228 2.92518H393.544C395.346 3.00348 396.782 4.38776 396.913 6.11152V18.5696H397.252C401.771 6.5294 410.259 0.914116 421.698 0.914116C433.321 0.914116 440.581 6.5294 445.805 18.5696C450.297 6.5294 460.509 0.914116 471.452 0.914116C479.235 0.914116 487.75 4.12658 492.947 11.335C498.824 19.3532 497.622 31.0016 497.622 41.2136L497.596 101.362C497.596 103.269 496.003 104.81 494.018 104.81H475.475C473.62 104.679 472.131 103.191 472.131 101.362V50.851C472.131 46.8289 472.497 36.7997 471.609 32.9865C470.225 26.5877 466.072 24.7856 460.692 24.7856C456.2 24.7856 451.499 27.7891 449.592 32.5948C447.685 37.4004 447.868 45.4446 447.868 50.851V101.362C447.868 103.269 446.275 104.81 444.29 104.81H425.747C423.866 104.679 422.404 103.191 422.404 101.362L422.377 50.851C422.377 40.2211 424.127 24.5767 410.938 24.5767C397.592 24.5767 398.114 39.8294 398.114 50.851V101.362C398.114 103.269 396.521 104.81 394.536 104.81Z" fill="white"/>
<path d="M132.625 0.914116C105.071 0.914116 90.1581 24.5767 90.1581 54.6642C90.1581 83.7331 106.638 106.795 132.625 106.795C159.683 106.795 174.413 83.1324 174.413 53.6456C174.413 23.976 159.5 0.914116 132.625 0.914116ZM132.469 20.3717C146.154 20.3717 147.016 39.0197 147.016 50.6421C147.016 62.2905 147.199 87.1545 132.625 87.1545C118.234 87.1545 117.555 67.0962 117.555 54.8731C117.555 46.8289 117.895 37.2176 120.324 29.5913C122.413 22.9574 126.566 20.3717 132.469 20.3717Z" fill="white"/>
<path d="M21.8604 104.81H3.3691C1.51473 104.679 0.0260239 103.191 0.0260239 101.362L-6.10352e-05 6.03317C0.156644 4.28329 1.69755 2.92518 3.57802 2.92518H20.7895C22.4088 3.00348 23.7408 4.10047 24.1065 5.58917V20.1628H24.446C29.6434 7.13011 36.9302 0.914116 49.754 0.914116C58.0855 0.914116 66.2081 3.91765 71.4316 12.1447C76.2895 19.771 76.2895 32.5948 76.2895 41.8143V101.806C76.0806 103.478 74.5396 104.81 72.7114 104.81H54.0895C52.3918 104.679 50.9815 103.426 50.7987 101.806V50.0414C50.7987 39.6204 52.0001 24.3677 39.1764 24.3677C34.658 24.3677 30.5053 27.3974 28.442 31.9941C25.8302 37.8183 25.4907 43.6164 25.4907 50.0414V101.362C25.4646 103.269 23.8453 104.81 21.8604 104.81Z" fill="white"/>
<path d="M322.499 59.287V55.2649C309.074 55.2649 294.893 58.1378 294.893 73.9651C294.893 81.9832 299.045 87.4157 306.175 87.4157C311.399 87.4157 316.074 84.2032 319.025 78.9797C322.682 72.5547 322.499 66.5216 322.499 59.287ZM341.225 104.549C339.998 105.646 338.222 105.724 336.837 104.993C330.674 99.8738 329.577 97.4971 326.181 92.6131C315.996 103.008 308.787 106.116 295.572 106.116C279.953 106.116 267.782 96.4785 267.782 77.1776C267.782 62.1077 275.957 51.8435 287.58 46.8289C297.661 42.3889 311.738 41.6054 322.499 40.3778V37.975C322.499 33.5611 322.838 28.3376 320.253 24.5245C317.98 21.103 313.645 19.6927 309.832 19.6927C302.754 19.6927 296.433 23.323 294.893 30.8449C294.579 32.5164 293.352 34.1619 291.68 34.2402L273.659 32.3075C272.144 31.968 270.473 30.7404 270.89 28.416C275.043 6.58166 294.762 0 312.417 0C321.454 0 333.259 2.40282 340.389 9.24563C349.426 17.6816 348.564 28.9383 348.564 41.1875V70.1258C348.564 78.823 352.168 82.6361 355.564 87.3373C356.765 89.0088 357.026 91.0199 355.512 92.2735C351.724 95.4338 344.986 101.31 341.277 104.601L341.225 104.549Z" fill="white"/>
<path d="M565.941 59.287V55.2649C552.517 55.2649 538.335 58.1378 538.335 73.9651C538.335 81.9832 542.488 87.4157 549.618 87.4157C554.841 87.4157 559.516 84.2032 562.467 78.9797C566.124 72.5547 565.941 66.5216 565.941 59.287ZM584.667 104.549C583.44 105.646 581.664 105.724 580.28 104.993C574.116 99.8738 573.019 97.4971 569.624 92.6131C559.438 103.008 552.229 106.116 539.014 106.116C523.396 106.116 511.225 96.4785 511.225 77.1776C511.225 62.1077 519.4 51.8435 531.022 46.8289C541.103 42.3889 555.181 41.6054 565.941 40.3778V37.975C565.941 33.5611 566.281 28.3376 563.695 24.5245C561.423 21.103 557.087 19.6927 553.274 19.6927C546.196 19.6927 539.876 23.323 538.335 30.8449C538.021 32.5164 536.794 34.1619 535.122 34.2402L517.101 32.3075C515.586 31.968 513.915 30.7404 514.333 28.416C518.485 6.58166 538.204 0 555.86 0C564.896 0 576.702 2.40282 583.832 9.24563C592.868 17.6816 592.007 28.9383 592.007 41.1875V70.1258C592.007 78.823 595.611 82.6361 599.006 87.3373C600.207 89.0088 600.469 91.0199 598.954 92.2735C595.167 95.4338 588.428 101.31 584.72 104.601L584.667 104.549Z" fill="white"/>
</svg>
