<svg width="601" height="182" viewBox="0 0 601 182" fill="none" xmlns="http://www.w3.org/2000/svg">
<path d="M228.136 141.647C263.003 167.347 313.54 181.058 357.052 181.058C418.063 181.058 472.988 158.493 514.542 120.962C517.806 118.01 514.881 113.988 510.963 116.287C466.119 142.378 410.672 158.075 353.396 158.075C314.768 158.075 272.274 150.083 233.203 133.498C227.3 130.991 222.364 137.364 228.136 141.647Z" fill="#0080FF"/>
<path d="M213.64 125.062C218.08 119.369 243.101 122.372 254.332 123.704C257.753 124.122 258.275 121.145 255.194 119.003C235.266 104.978 202.567 109.026 198.753 113.727C194.94 118.454 199.746 151.232 218.472 166.876C221.345 169.279 224.088 168 222.808 164.813C218.603 154.314 209.174 130.782 213.64 125.062Z" fill="#0080FF"/>
<path d="M187.183 19.991V6.35757C187.183 4.29428 188.75 2.91005 190.631 2.91005H251.668C253.627 2.91005 255.194 4.3204 255.194 6.35757V18.0321C255.168 19.991 253.522 22.5505 250.597 26.5987L218.968 71.7561C230.721 71.4688 243.127 73.2187 253.783 79.2257C256.186 80.5838 256.839 82.5688 257.022 84.5276V99.0751C257.022 101.06 254.828 103.385 252.53 102.183C233.751 92.3368 208.809 91.2659 188.045 102.288C185.93 103.437 183.71 101.138 183.71 99.1535V85.3372C183.71 83.1173 183.736 79.3302 185.956 75.961L222.599 23.4124H190.709C188.75 23.4124 187.183 22.0282 187.183 19.991Z" fill="#032B43"/>
<path d="M394.9 105.056H376.33C374.554 104.925 373.144 103.593 373.013 101.896V6.59264C373.013 4.68605 374.607 3.17122 376.592 3.17122H393.908C395.71 3.24952 397.146 4.6338 397.277 6.35756V18.8157H397.616C402.135 6.77544 410.623 1.16016 422.062 1.16016C433.685 1.16016 440.945 6.77544 446.169 18.8157C450.661 6.77544 460.873 1.16016 471.816 1.16016C479.599 1.16016 488.114 4.37262 493.311 11.5811C499.188 19.5992 497.986 31.2476 497.986 41.4597L497.96 101.609C497.96 103.515 496.367 105.056 494.382 105.056H475.839C473.984 104.925 472.496 103.437 472.496 101.609V51.097C472.496 47.0749 472.861 37.0458 471.973 33.2326C470.589 26.8338 466.436 25.0317 461.056 25.0317C456.564 25.0317 451.863 28.0352 449.956 32.8408C448.049 37.6465 448.232 45.6907 448.232 51.097V101.609C448.232 103.515 446.639 105.056 444.654 105.056H426.111C424.23 104.925 422.768 103.437 422.768 101.609L422.741 51.097C422.741 40.4672 424.491 24.8227 411.302 24.8227C397.956 24.8227 398.478 40.0754 398.478 51.097V101.609C398.478 103.515 396.885 105.056 394.9 105.056Z" fill="#032B43"/>
<path d="M132.989 1.16016C105.435 1.16016 90.5221 24.8227 90.5221 54.9102C90.5221 83.9791 107.002 107.041 132.989 107.041C160.047 107.041 174.777 83.3784 174.777 53.8916C174.777 24.222 159.864 1.16016 132.989 1.16016ZM132.833 20.6178C146.518 20.6178 147.38 39.2658 147.38 50.8881C147.38 62.5366 147.563 87.4005 132.989 87.4005C118.598 87.4005 117.919 67.3422 117.919 55.1191C117.919 47.0749 118.259 37.4637 120.688 29.8373C122.777 23.2034 126.93 20.6178 132.833 20.6178Z" fill="#032B43"/>
<path d="M22.2244 105.056H3.73311C1.87875 104.925 0.390038 103.437 0.390038 101.609L0.363953 6.27921C0.520657 4.52933 2.06157 3.17122 3.94203 3.17122H21.1536C22.7728 3.24952 24.1048 4.34651 24.4705 5.83521V20.4088H24.81C30.0074 7.37615 37.2942 1.16016 50.118 1.16016C58.4495 1.16016 66.5721 4.16369 71.7956 12.3907C76.6535 20.0171 76.6535 32.8408 76.6535 42.0603V102.053C76.4446 103.724 74.9036 105.056 73.0754 105.056H54.4535C52.7558 104.925 51.3455 103.672 51.1627 102.053V50.2874C51.1627 39.8665 52.3641 24.6138 39.5404 24.6138C35.022 24.6138 30.8693 27.6434 28.806 32.2401C26.1943 38.0644 25.8548 43.8625 25.8548 50.2874V101.609C25.8287 103.515 24.2093 105.056 22.2244 105.056Z" fill="#032B43"/>
<path d="M322.863 59.533V55.5109C309.438 55.5109 295.257 58.3839 295.257 74.2111C295.257 82.2292 299.409 87.6617 306.539 87.6617C311.763 87.6617 316.438 84.4493 319.389 79.2257C323.046 72.8008 322.863 66.7676 322.863 59.533ZM341.589 104.795C340.362 105.892 338.586 105.97 337.201 105.239C331.038 100.12 329.941 97.7431 326.545 92.8591C316.36 103.254 309.151 106.362 295.936 106.362C280.317 106.362 268.146 96.7245 268.146 77.4236C268.146 62.3538 276.321 52.0895 287.944 47.0749C298.025 42.6349 312.102 41.8514 322.863 40.6239V38.2211C322.863 33.8072 323.202 28.5837 320.617 24.7705C318.344 21.3491 314.009 19.9387 310.196 19.9387C303.118 19.9387 296.797 23.5691 295.257 31.091C294.943 32.7625 293.716 34.4079 292.044 34.4863L274.023 32.5535C272.508 32.214 270.837 30.9865 271.254 28.662C275.407 6.8277 295.126 0.246048 312.781 0.246048C321.818 0.246048 333.623 2.64887 340.753 9.49168C349.79 17.9277 348.928 29.1844 348.928 41.4335V70.3719C348.928 79.069 352.532 82.8822 355.928 87.5834C357.129 89.2549 357.39 91.2659 355.876 92.5196C352.088 95.6798 345.35 101.556 341.641 104.847L341.589 104.795Z" fill="#032B43"/>
<path d="M566.305 59.533V55.5109C552.881 55.5109 538.699 58.3839 538.699 74.2111C538.699 82.2292 542.852 87.6617 549.982 87.6617C555.205 87.6617 559.88 84.4493 562.832 79.2257C566.488 72.8008 566.305 66.7676 566.305 59.533ZM585.031 104.795C583.804 105.892 582.028 105.97 580.644 105.239C574.48 100.12 573.383 97.7431 569.988 92.8591C559.802 103.254 552.593 106.362 539.378 106.362C523.76 106.362 511.589 96.7245 511.589 77.4236C511.589 62.3538 519.764 52.0895 531.386 47.0749C541.467 42.6349 555.545 41.8514 566.305 40.6239V38.2211C566.305 33.8072 566.645 28.5837 564.059 24.7705C561.787 21.3491 557.451 19.9387 553.638 19.9387C546.56 19.9387 540.24 23.5691 538.699 31.091C538.385 32.7625 537.158 34.4079 535.486 34.4863L517.465 32.5535C515.95 32.214 514.279 30.9865 514.697 28.662C518.849 6.8277 538.568 0.246048 556.224 0.246048C565.26 0.246048 577.066 2.64887 584.196 9.49168C593.232 17.9277 592.371 29.1844 592.371 41.4335V70.3719C592.371 79.069 595.975 82.8822 599.37 87.5834C600.571 89.2549 600.833 91.2659 599.318 92.5196C595.531 95.6798 588.792 101.556 585.084 104.847L585.031 104.795Z" fill="#032B43"/>
</svg>
